<svg width="15" height="19" viewBox="0 0 15 19" fill="none" xmlns="http://www.w3.org/2000/svg">
<path fill-rule="evenodd" clip-rule="evenodd" d="M10.2188 3.03179C9.59766 3.80483 8.55469 4.38462 7.72266 4.38462C7.62891 4.38462 7.53516 4.37254 7.47656 4.36046C7.46484 4.31214 7.44141 4.1672 7.44141 4.02225C7.44141 3.03179 7.92188 2.06548 8.44922 1.44946C9.11719 0.640178 10.2305 0.0362365 11.1562 0C11.1797 0.108709 11.1914 0.241577 11.1914 0.374444C11.1914 1.35283 10.7812 2.33121 10.2188 3.03179ZM6.14332 18.6399C5.72571 18.8248 5.32995 19 4.79297 19C3.64453 19 2.84766 17.9129 1.93359 16.5842C0.867188 15.014 0 12.5861 0 10.2912C0 6.59504 2.33203 4.63827 4.62891 4.63827C5.2993 4.63827 5.91185 4.89164 6.45653 5.11693C6.89253 5.29728 7.28504 5.45963 7.62891 5.45963C7.92717 5.45963 8.29887 5.30823 8.7321 5.13177C9.33719 4.88531 10.0623 4.58996 10.875 4.58996C11.3906 4.58996 13.2773 4.63827 14.5195 6.47425C14.5124 6.47996 14.4972 6.49029 14.4751 6.50535C14.1695 6.71332 12.5391 7.82269 12.5391 10.0979C12.5391 12.9123 14.918 13.9148 15 13.939C14.9979 13.9444 14.993 13.9599 14.9853 13.9845C14.9071 14.234 14.5343 15.4233 13.7344 16.6325C12.9492 17.7921 12.1172 18.9758 10.875 18.9758C10.2628 18.9758 9.87264 18.7978 9.46985 18.6139C9.03999 18.4177 8.59569 18.2149 7.85156 18.2149C7.10343 18.2149 6.60975 18.4334 6.14332 18.6399Z" fill="white"/>
</svg>
